<svg xmlns="http://www.w3.org/2000/svg" width="27.169" height="27.213" viewBox="0 0 27.169 27.213">
  <path id="Icon_feather-phone" data-name="Icon feather-phone" d="M26.315,20.365v3.492a2.328,2.328,0,0,1-2.537,2.328,23.033,23.033,0,0,1-10.044-3.573A22.7,22.7,0,0,1,6.75,15.628,23.033,23.033,0,0,1,3.177,5.537,2.328,2.328,0,0,1,5.493,3H8.985a2.328,2.328,0,0,1,2.328,2,14.944,14.944,0,0,0,.815,3.27,2.328,2.328,0,0,1-.524,2.456l-1.478,1.478a18.622,18.622,0,0,0,6.983,6.983l1.478-1.478a2.328,2.328,0,0,1,2.456-.524,14.944,14.944,0,0,0,3.27.815,2.328,2.328,0,0,1,2,2.363Z" transform="translate(-1.901 -0.199) rotate(-3)" fill="none" stroke="#471d7c" stroke-linecap="round" stroke-linejoin="round" stroke-width="2.7"/>
</svg>
