<?xml version="1.0" standalone="no"?>
<!DOCTYPE svg PUBLIC "-//W3C//DTD SVG 20010904//EN"
 "http://www.w3.org/TR/2001/REC-SVG-20010904/DTD/svg10.dtd">
<svg version="1.0" xmlns="http://www.w3.org/2000/svg"
 width="54.000000pt" height="79.000000pt" viewBox="0 0 54.000000 79.000000"
 preserveAspectRatio="xMidYMid meet">

<g transform="translate(0.000000,79.000000) scale(0.100000,-0.100000)"
fill="#000000" stroke="none">
<path d="M35 755 l-25 -24 0 -346 c0 -190 4 -345 8 -345 4 0 30 23 57 50 l49
50 179 0 c244 0 227 -19 227 262 l0 213 -83 83 -82 82 -153 0 c-149 0 -154 -1
-177 -25z m325 -70 c0 -76 10 -85 89 -85 l51 0 0 -203 c0 -145 -3 -206 -12
-215 -8 -8 -65 -12 -190 -12 l-178 0 -40 -36 -40 -36 0 310 c0 171 3 317 6
326 5 14 29 16 160 16 l154 0 0 -65z"/>
<path d="M117 644 c-18 -19 0 -24 84 -24 68 0 90 3 87 13 -5 13 -158 23 -171
11z"/>
<path d="M115 520 c-3 -5 0 -12 7 -15 26 -10 303 0 301 10 -4 14 -299 19 -308
5z"/>
<path d="M115 400 c-3 -5 0 -12 7 -15 26 -10 303 0 301 10 -4 14 -299 19 -308
5z"/>
<path d="M113 278 c5 -18 309 -18 315 0 3 9 -33 12 -158 12 -125 0 -161 -3
-157 -12z"/>
</g>
</svg>
