<svg xmlns="http://www.w3.org/2000/svg" width="16.373" height="17.738" viewBox="0 0 16.373 17.738">
  <g id="Icon_ionic-ios-nutrition" data-name="Icon ionic-ios-nutrition" transform="translate(-4.5 -3.374)">
    <path id="Trazado_61" data-name="Trazado 61" d="M17.082,13.8h0a.133.133,0,0,1-.017-.026L13.7,10.384h0a1.409,1.409,0,0,0-1.006-.435,1.329,1.329,0,0,0-1.181.695h0s-.145.217-.537.844a.345.345,0,0,0,0,.367l1.143,1.757c.124.162.141.341.06.422l0,0c-.1.1-.252.064-.418-.06L10.38,13.1a.344.344,0,0,0-.473.107c-.934,1.5-2,3.185-3.036,4.861a.341.341,0,0,0,0,.354l.6,1.028c.124.162.141.341.06.422l0,0c-.1.1-.252.064-.418-.06L6.4,19.462a.34.34,0,0,0-.443.124C5.2,20.792,4.76,21.491,4.713,21.568h0a1.5,1.5,0,0,0-.213.759A1.364,1.364,0,0,0,5.86,23.7a1.561,1.561,0,0,0,.878-.324l4.456-3.309a.342.342,0,0,0,.085-.456l-.874-1.369c-.124-.162-.141-.341-.06-.422l0,0c.1-.1.252-.064.418.06l1.595,1.092a.339.339,0,0,0,.4-.009c2.26-1.667,4.157-3.078,4.157-3.078h0a1.389,1.389,0,0,0,.554-1.109,1.338,1.338,0,0,0-.388-.968Z" transform="translate(0 -2.588)" fill="#6e5b44"/>
    <path id="Trazado_62" data-name="Trazado 62" d="M28.008,6.922l-.478-.763a.341.341,0,0,0-.465-.124L24.533,7.6l2.017-3.364a.346.346,0,0,0-.124-.469l-.755-.341a.339.339,0,0,0-.469.128L22.746,8.167,23.966,9.4l3.914-2A.348.348,0,0,0,28.008,6.922Z" transform="translate(-7.182)" fill="#6e5b44"/>
  </g>
</svg>
