<svg xmlns="http://www.w3.org/2000/svg" width="15.23" height="18.051" viewBox="0 0 15.23 18.051">
  <path id="Icon_metro-spoon-fork" data-name="Icon metro-spoon-fork" d="M6.919,1.928A3.7,3.7,0,0,0,3.535,5.877a3.874,3.874,0,0,0,2.6,3.843l-.56,9.133a1.051,1.051,0,0,0,1.059,1.126H7.2A1.051,1.051,0,0,0,8.26,18.853L7.7,9.719a3.874,3.874,0,0,0,2.6-3.843A3.7,3.7,0,0,0,6.919,1.928Zm11.376,0-.94,5.641H16.65l-.47-5.641h-.47l-.47,5.641h-.705l-.94-5.641h-.47V9.261a.564.564,0,0,0,.564.564h1.469L14.6,18.853a1.051,1.051,0,0,0,1.059,1.126h.564a1.051,1.051,0,0,0,1.059-1.126l-.554-9.028H18.2a.564.564,0,0,0,.564-.564V1.928Z" transform="translate(-3.535 -1.928)" fill="#6e5b44"/>
</svg>
