<svg xmlns="http://www.w3.org/2000/svg" width="23.907" height="23.906" viewBox="0 0 23.907 23.906">
  <g id="Icon_ionic-ios-timer" data-name="Icon ionic-ios-timer" transform="translate(16.471 -4.901) rotate(60)">
    <path id="Trazado_59" data-name="Trazado 59" d="M12.339,20.74A8.4,8.4,0,0,1,6.508,6.29a.674.674,0,0,1,.937.97A7.051,7.051,0,1,0,13.011,5.32v2.63a.676.676,0,1,1-1.353,0V4.614a.676.676,0,0,1,.676-.676,8.4,8.4,0,0,1,0,16.8Z" transform="translate(0 0)" fill="#6e5b44" stroke="#6e5b44" stroke-width="0.7"/>
    <path id="Trazado_60" data-name="Trazado 60" d="M11.919,11.331l4.18,3a1.265,1.265,0,0,1-1.47,2.058,1.221,1.221,0,0,1-.294-.294l-3-4.18a.421.421,0,0,1,.588-.588Z" transform="translate(-2.945 -2.944)" fill="#6e5b44" stroke="#6e5b44" stroke-width="0.7"/>
  </g>
</svg>
